<svg xmlns="http://www.w3.org/2000/svg" version="1.1" xmlns:xlink="http://www.w3.org/1999/xlink" xmlns:svgjs="http://svgjs.dev/svgjs" viewBox="0 0 9.392177933888954 9.392177933888954"><g transform="matrix(1,0,0,1,2.789958368971477,3.474903393101058)"><rect width="9.392177933888954" height="9.392177933888954" x="-2.7899583689714764" y="-3.4749033931010573" fill="transparent"></rect><g><path d=" M -0.8548721911404031 -0.8468174159066537 C -0.8724547610656761 -0.8542457537396742 -0.8827717028716895 -0.9022402997945909 -0.8987972476926713 -0.9136425552452194 C -0.9063882952394522 -0.9190436236165698 -0.9179368427222356 -0.9170969754606315 -0.9263385046332251 -0.90528867927675 L -1.018756785654109 -0.7753974212540549 C -1.0271584475650983 -0.7635891250701734 -1.02521179940916 -0.7520405775873902 -1.0176207518623792 -0.7466395092160398 C -1.0015952070413974 -0.7352372537654113 -0.9534707866359315 -0.7403800405379607 -0.9406891663740811 -0.7262041048855795 L -0.6895009231120578 -0.4382248121813645 C -0.6895009231120578 -0.4382248121813645 -1.0180388089703465 -0.5817801235220676 -1.0332209040639082 -0.5925822602647683 C -1.0568374964316711 -0.6093855840867473 -1.0587199409634833 -0.6513789430623859 -1.0764323852393054 -0.66398143592887 C -1.0840234327860863 -0.6693825043002204 -1.0955719802688697 -0.6674358561442821 -1.103973642179859 -0.6556275599604007 L -1.2095945347751549 -0.5071804079344633 C -1.2179961966861446 -0.4953721117505819 -1.216049548530206 -0.48382356426779854 -1.2084585009834252 -0.4784224958964482 C -1.1907460567076031 -0.465820003029964 -1.1431247160227276 -0.4827546683047891 -1.1079595761721817 -0.46789799263874843 L -0.5584393288321241 -0.23317535784013155 C -0.54301390271907 -0.22092965266208292 -0.5305398171008378 -0.17775247395219443 -0.5145142722798558 -0.1663502185015659 C -0.5069232247330749 -0.16094915013021555 -0.4953746772502916 -0.1628957982861538 -0.48697301533930215 -0.17470409447003518 L -0.38855354723914004 -0.3130298497669315 C -0.38015188532815064 -0.32483814595081284 -0.3820985334840889 -0.3363866934335962 -0.3896895810308698 -0.3417877618049465 C -0.40571512585185165 -0.3531900172555751 -0.4505956216981861 -0.35082091068477816 -0.466621166519168 -0.3622231661354067 L -0.6992699334595549 -0.6459045888967896 L -0.3549990868445939 -0.5191048154355452 C -0.3389735420236121 -0.5077025599849166 -0.3264994564053797 -0.4645253812750282 -0.31047391158439785 -0.4531231258243996 C -0.30288286403761694 -0.44772205745304927 -0.2913343165548336 -0.44966870560898753 -0.2829326546438442 -0.46147700179286893 L -0.1845131865436821 -0.5998027570897652 C -0.17611152463269264 -0.6116110532736466 -0.1780581727886309 -0.62315960075643 -0.1856492203354118 -0.6285606691277803 C -0.20167476515639365 -0.6399629245784088 -0.24955585454236717 -0.6333765693705115 -0.2631809245316378 -0.6481526237308203 L -0.6650719697214522 -1.0903638914747815 C -0.6906352102451532 -1.1187157627795439 -0.6902470542958034 -1.1692570756983267 -0.7079594985716254 -1.181859568564811 C -0.7155505461184063 -1.1872606369361614 -0.7270990936011896 -1.185313988780223 -0.7355007555121791 -1.1735056925963416 L -0.841121648107475 -1.0250585405704042 C -0.8495233100184645 -1.0132502443865228 -0.8475766618625261 -1.0017016969037396 -0.8399856143157453 -0.9963006285323892 C -0.8222731700399232 -0.9836981356659049 -0.7819831282007306 -0.9956855592451528 -0.7583665358329678 -0.9788822354231739 C -0.743184440739406 -0.9680800986804732 -0.4998634114068674 -0.7047549260461159 -0.4998634114068674 -0.7047549260461159 M 0.0577185224441993 -0.8299488103004217 L 0.21424392769069056 -0.9606606224125258 C 0.26271118515280206 -1.0011348383457155 0.2630458747686497 -1.0621028185302437 0.2358418935676534 -1.094679171906417 L -0.1509854488757817 -1.5578990260115155 C -0.180179965286607 -1.5928590150005795 -0.23903472119179248 -1.6003529558532728 -0.28670743344960703 -1.5605422516566927 L -0.4432328386960983 -1.4298304395445887 C -0.4853437345238345 -1.3946643175042763 -0.5001363044792341 -1.344549558846357 -0.46497018243892185 -1.3024386630186207 L -0.07150772262939006 -0.8312733568705531 C -0.037005112325687456 -0.7899570062471138 0.014813081412166154 -0.7941191765234997 0.0577185224441993 -0.8299488103004217 M 0.011074912228447892 -0.9487875569309371 L -0.334614702545188 -1.3627456083696272 C -0.33726874949162655 -1.3659237891868148 -0.3368756490885648 -1.3702979600095344 -0.33369746827137725 -1.3729520069559733 L -0.24709204100301405 -1.4452747862464268 C -0.2439138601858264 -1.4479288331928655 -0.23953968936310666 -1.4475357327898037 -0.23688564241666804 -1.4443575519726162 L 0.10880397235696782 -1.030399500533926 C 0.11079450756679682 -1.0280158649210351 0.11106491890034476 -1.0228471488940185 0.10788673808315707 -1.02019310194758 L 0.02128131081479391 -0.9478703226571263 C 0.018103129997606285 -0.9452162757106877 0.013065447438276895 -0.9464039213180464 0.011074912228447892 -0.9487875569309371 M 0.4753196460523843 -1.140288432501314 L 0.6535871682663728 -1.2393160591359733 C 0.7087867563630901 -1.2699794359111722 0.7205528611629474 -1.3298022192195305 0.6999430505435513 -1.3669035817107664 L 0.406881597101895 -1.8944668581105395 C 0.38476375155912845 -1.934282954442598 0.32835972270125413 -1.9526847742102924 0.27406504588481095 -1.9225240757428836 L 0.0957975236708225 -1.8234964491082244 C 0.04783722581629768 -1.7968544987953465 0.023905944662911627 -1.7504044940204868 0.050547894975789376 -1.702444196165962 L 0.3486361314953472 -1.1658318069634483 C 0.3747754035004349 -1.1187764203891977 0.4264544369175854 -1.113143803880646 0.4753196460523843 -1.140288432501314 M 0.45179782397162505 -1.265767506297194 L 0.1899024256129579 -1.7372262833199759 C 0.1878917123817973 -1.740845928441072 0.18909841129924904 -1.7450686972052647 0.19271805642034523 -1.7470794104364251 L 0.29135338597021704 -1.8018713459855513 C 0.29497303109131323 -1.803882059216712 0.2991957998555058 -1.8026753602992602 0.3012065130866664 -1.799055715178164 L 0.5631019114453335 -1.3275969381553823 C 0.564609946368704 -1.32488220431456 0.5639059257590424 -1.3197545242700934 0.5602862806379463 -1.317743811038933 L 0.4616509510880744 -1.2629518754898068 C 0.4580313059669783 -1.2609411622586462 0.4533058588949955 -1.263052772456372 0.45179782397162505 -1.265767506297194 M 1.3235835233133797 -1.5079328274882644 C 1.3179678073260086 -1.5256992537914673 1.2884081678396198 -1.5196127824179029 1.2464713015303048 -1.5595533689288987 L 0.9735952218077122 -1.8217907325699088 L 1.0464039478211598 -2.123813373568003 C 1.0565239816431955 -2.163923847459319 1.0841550866736869 -2.1932847609777344 1.079163339129357 -2.209077139913915 C 1.0754195284711097 -2.2209214241160504 1.0650274652308545 -2.2263217398119757 1.0482480626111628 -2.221018008046125 L 0.8794670127307348 -2.1676687061660984 C 0.8686097522121108 -2.164236879729372 0.8609234049276423 -2.1542078717295867 0.8640432471428485 -2.144337634894474 C 0.8684110262441372 -2.130519303325316 0.891271342129569 -2.1268887509206156 0.8981349950030226 -2.1051742298833678 C 0.8993829318891051 -2.1012261351493224 0.8972556714652344 -2.090783000890118 0.8972556714652344 -2.090783000890118 L 0.8515961788804369 -1.8711651972253012 L 0.8004307665510548 -2.03303708132115 C 0.7879513976902299 -2.072518028661601 0.8232177789862405 -2.1086348949077474 0.8166661103343074 -2.129362392261484 C 0.8135462681191012 -2.139232629096597 0.8034661891003666 -2.1436459211090106 0.7896478575312088 -2.139278142007722 L 0.6159316892332245 -2.0843689190200925 C 0.6021133576640667 -2.080001139918804 0.5967130419681415 -2.0696090766785487 0.5995208999618271 -2.060725863526947 C 0.6060725686137601 -2.03999836617321 0.6556902240997192 -2.030712142977838 0.6681695929605441 -1.9912311956373867 L 0.8406968674614481 -1.445407098655652 C 0.853176236322273 -1.405926151315201 0.8179098550262625 -1.369809285069055 0.8244615236781956 -1.3490817877153183 C 0.8272693816718811 -1.3401985745637168 0.8376614449121363 -1.3347982588677916 0.8514797764812941 -1.3391660379690802 L 1.0251959447792784 -1.3940752609567097 C 1.0390142763484362 -1.3984430400579986 1.0444145920443615 -1.4088351032982536 1.0416067340506758 -1.417718316449855 C 1.035055065398743 -1.4384458138035918 0.9854374099127837 -1.4477320369989644 0.9729580410519589 -1.4872129843394153 L 0.9255364393808243 -1.637240584233129 L 0.9308801259499759 -1.6649849475171679 L 1.1083446149655 -1.498523277872228 C 1.128975528389162 -1.4779034806642142 1.1018606916559888 -1.4606477645505054 1.1087243445294426 -1.4389332435132574 C 1.1115322025231282 -1.430050030361656 1.1219242657633832 -1.4246497146657306 1.1357425973325412 -1.4290174937670195 L 1.307484718263503 -1.4833027483116077 C 1.3213030498326608 -1.4876705274128963 1.3263913813070654 -1.4990496143366627 1.3235835233133797 -1.5079328274882644 M 1.4788663351284432 -2.1890034887097514 C 1.4728907809658358 -2.2299763163216424 1.5135006270051194 -2.2599594129232825 1.5103634610697505 -2.2814701474195256 C 1.509018961383164 -2.290689033632201 1.4996292850282642 -2.2976884883220574 1.4852887953641023 -2.2955970443651452 L 1.305008353871782 -2.2693046060496727 C 1.2906678642076204 -2.2672131620927596 1.2836684095177635 -2.2578234857378603 1.2850129092043503 -2.248604599525185 C 1.288150075139719 -2.227093865028942 1.335631808466001 -2.2099582098769077 1.3416073626286085 -2.1689853822650167 L 1.4242193989266558 -1.6025360405306242 C 1.4301949530892633 -1.5615632129187331 1.3895851070499796 -1.531580116317093 1.3927222729853486 -1.5100693818208502 C 1.3940667726719354 -1.5008504956081747 1.4034564490268349 -1.493851040918318 1.4177969386909968 -1.4959424848752305 L 1.598077380183317 -1.522234923190703 C 1.612417869847479 -1.5243263671476157 1.6194173245373356 -1.5337160435025154 1.6180728248507488 -1.5429349297151909 C 1.61493565891538 -1.5644456642114337 1.567453925589098 -1.581581319363468 1.5614783714264906 -1.622554146975359 M 2.0800279233850745 -1.5374018614136389 C 2.104871548698809 -1.5373180324580913 2.1152579879776767 -1.5476346142740025 2.1153418169332245 -1.5724782395877375 L 2.116078813167415 -1.7908951121376564 C 2.116117234772041 -1.802281773739785 2.106828818264573 -1.810594418036027 2.0985476098266616 -1.8106223610212095 C 2.086125797169794 -1.8106642754989832 2.005198892623321 -1.756073713703349 1.988594561269724 -1.7437077870168467 C 1.9802923955929255 -1.7375248236735956 1.9771694780629696 -1.7323595470193442 1.9771170849657522 -1.71683228119826 L 1.9768970339574394 -1.651617764749706 L 1.8920146474688453 -1.6519041803478274 C 1.8847685900856725 -1.6519286304598622 1.878575148122978 -1.6571253429724437 1.8785995982350128 -1.6643714003556165 L 1.878990800027569 -1.7803083184863793 L 1.9982881510623396 -1.8554726650703233 C 2.013846852741754 -1.8647366314657563 2.0180153999458925 -1.8730038684110768 2.0180747787894058 -1.890601436341639 L 2.0183961231190053 -1.9858353333776226 C 2.018434544723631 -1.9972219949797512 2.0112234160719367 -2.0075979556391754 1.9988016034150693 -2.0076398701169493 C 1.9905203949771577 -2.007667813102132 1.981190063991916 -2.0035586447415064 1.9718527472603784 -1.997379174271403 L 1.8795287024923335 -1.9397215809161779 L 1.88038445641355 -2.1933335893272212 C 1.8804054136524369 -2.199544495655655 1.8866372772197575 -2.2057344447452016 1.8938833346029302 -2.205709994633167 L 1.9787657210915244 -2.2054235790350454 L 1.9783815050452638 -2.091556963013761 C 1.9783430834406377 -2.0801703014116324 1.987631499948106 -2.07185765711539 1.9959127083860175 -2.0718297141302076 C 2.008334521042885 -2.0717877996524336 2.0892614255893576 -2.1263783614480682 2.105865756942955 -2.1387442881345704 C 2.1141679226197536 -2.1449272514778217 2.1172908401497095 -2.150092528132073 2.1173432332469266 -2.165619793953157 L 2.1177414207857783 -2.2836270141933976 C 2.117825249741326 -2.308470639507133 2.1075086679254147 -2.3188570787860003 2.08266504261168 -2.318940907741548 L 1.7203621734530465 -2.320163413343286 C 1.7058700586867013 -2.3202123135673554 1.697560907263607 -2.3119590481146264 1.6975294714052767 -2.302642688621976 C 1.6974561210691723 -2.280904516472458 1.7418872803405474 -2.2569458486681055 1.7417475654146346 -2.2155398064785476 L 1.7398160065638888 -1.6431012732079067 C 1.739676291637976 -1.6016952310183485 1.6950844602018011 -1.578036950304709 1.6950111098656968 -1.556298778155191 C 1.6949796740073664 -1.5469824186625405 1.7032329394600956 -1.538673267239446 1.7177250542264408 -1.5386243670153767 M 2.9458414079347586 -2.0446878303291256 C 2.9587350423294665 -2.040834763205571 2.959430470581094 -2.039546555396474 2.9555774034575393 -2.026652921001766 L 2.900152514834101 -1.8411829493240461 C 2.8980777863829563 -1.8342402231115111 2.894019421871087 -1.8278902764564462 2.8771700716586674 -1.8221215530551143 L 2.772802126514329 -1.7874065639529657 L 2.8575696032325286 -2.0710665206365375 M 2.6872263745860816 -1.4251197056995237 C 2.7011118270111516 -1.4209702487972342 2.7114174894839285 -1.4265336748102515 2.714084997492543 -1.4354600370835109 C 2.7203091828459773 -1.4562882157211157 2.6844779724513095 -1.4918447909050483 2.696333563600708 -1.531517512119534 L 2.723601423244325 -1.6227647709128508 C 2.7259725414742046 -1.6306993151557478 2.730133554680231 -1.6337774179409914 2.7385582297864404 -1.6366617796416574 L 2.9608716264177164 -1.7117578325531293 C 2.9945703268425556 -1.723295279355793 3.01527274417853 -1.7419576371518328 3.0220897090894336 -1.764769451850162 L 3.09766910266685 -2.0176830495925073 C 3.1157488791696824 -2.0781839494445977 3.0905197210265265 -2.1202957686719097 3.017125186779728 -2.142228612298297 L 2.736440684187243 -2.226106919680292 C 2.722555231762173 -2.2302563765825814 2.7122495692893964 -2.224692950569564 2.7095820612807815 -2.215766588296305 C 2.703357875927347 -2.1949384096587 2.739189086322015 -2.1593818344747673 2.7273334951726165 -2.119709113260282 L 2.5634299475321813 -1.5712337424700191 C 2.551574356382783 -1.5315610212555335 2.502109216166307 -1.5214939670428078 2.4958850308128726 -1.5006657884052028 C 2.4932175228042577 -1.4917394261319437 2.4987809488172754 -1.4814337636591668 2.5126664012423454 -1.4772843067568773 M 3.421147591885275 -1.8637241008178005 C 3.4386464453029237 -1.9012510242079697 3.4890497286625037 -1.9040177377333443 3.4982366267067695 -1.9237193725131831 C 3.5021738687257407 -1.932162930275971 3.4981682547312367 -1.9431680856375346 3.4850338315446776 -1.9492926843337117 L 3.3199153686279335 -2.0262876393713674 C 3.3067809454413744 -2.0324122380675447 3.2957757900798104 -2.0284066240730407 3.2918385480608396 -2.019963066310253 C 3.282651650016574 -2.000261431530414 3.3129312519458574 -1.959872183157094 3.2954323985282086 -1.9223452597669248 L 3.0535107500292105 -1.403535543897837 C 3.0360118966115612 -1.3660086205076678 2.9856086132519812 -1.3632419069822934 2.9764217152077155 -1.3435402722024545 C 2.9724844731887443 -1.3350967144396666 2.9764900871832483 -1.3240915590781028 2.989624510369808 -1.3179669603819257 L 3.1547429732865515 -1.2409720053442699 C 3.167877396473111 -1.2348474066480928 3.1788825518346746 -1.2388530206425967 3.1828197938536453 -1.2472965784053849 C 3.192006691897911 -1.2669982131852235 3.1617270899686276 -1.3073874615585435 3.179225943386277 -1.3449143849487126 M 3.4581351769121564 -1.1970527741231434 C 3.4785101864485473 -1.21084714556391 3.9399811378371017 -1.4930866240827532 4.028657743454859 -1.5497043787899858 C 4.037840776549433 -1.5560266957951345 4.044441236443962 -1.560337591728178 4.0513247946775985 -1.570677795427811 C 4.05935561261684 -1.5827413664107162 4.05561091336201 -1.601400441838424 4.038377240529289 -1.6128730388944836 L 3.7316178641068447 -1.8170852664923483 C 3.7178309258406674 -1.8262633441371963 3.7026161072546406 -1.8239564361016685 3.69286439975699 -1.809307814193855 L 3.617718889039798 -1.696427257139529 C 3.612556220364571 -1.688672104364804 3.615722334316872 -1.6766159665564886 3.626062538016505 -1.6697324083228526 C 3.645881261774135 -1.6565389217083841 3.7055709768888674 -1.6976339822418511 3.7322831697795857 -1.6798514568049585 L 3.8451637268339116 -1.6047059460877668 L 3.2746411602912096 -1.2520543414209244 C 3.265458127196635 -1.2457320244157757 3.258857667302106 -1.2414211284827321 3.25197410906847 -1.2310809247830992 C 3.243943291129228 -1.219017353800194 3.2476879903840583 -1.2003582783724862 3.26492166321678 -1.1888856813164264 L 3.5923614470384893 -0.97090633725129 C 3.6061483853046665 -0.9617282596064421 3.6213632038906933 -0.9640351676419701 3.6311149113883445 -0.9786837895497833 L 3.706260422105536 -1.0915643466041096 C 3.711423090780763 -1.0993194993788342 3.708256976828462 -1.1113756371871497 3.697916773128829 -1.1182591954207857 C 3.6780980493711994 -1.1314526820352544 3.618408334256467 -1.0903576215017872 3.5916961413657487 -1.1081401469386798 M 3.892046251068131 -0.8555267171145501 C 3.914683668274892 -0.8651689699250127 4.421621236088519 -1.0539250679702152 4.5194904555345525 -1.09253499437522 C 4.529713277303243 -1.0969840059750289 4.537016461856968 -1.0999527413857784 4.545750824403968 -1.1087853003243489 C 4.555940914042135 -1.1190899524193478 4.555834534617934 -1.138120784028716 4.541113603053649 -1.1526780549403828 L 4.27908102120939 -1.41179747716805 C 4.2673042759579625 -1.4234432938973833 4.251929128141773 -1.424089327116658 4.239555447866857 -1.4115765352870162 L 4.14420532339544 -1.3151544335409546 C 4.1376545514851895 -1.3085300143370266 4.138456062324451 -1.296090869801063 4.147288621263021 -1.287356507254063 C 4.164217692561948 -1.2706156457056461 4.2306660340584346 -1.2995342211044032 4.253483477983075 -1.2769704511913198 L 4.349905579729136 -1.181620326719903 L 3.722461375262715 -0.9446120494592329 C 3.712238553494025 -0.9401630378594242 3.704935368940299 -0.9371943024486747 3.696201006393299 -0.9283617435101041 C 3.6860109167551323 -0.9180570914151053 3.686117296179334 -0.8990262598057371 3.700838227743618 -0.8844689888940704 L 3.9805359274650183 -0.6078808415724031 C 3.9923126727164457 -0.5962350248430697 4.007687820532635 -0.5955889916237952 4.020061500807552 -0.6081017834534368 L 4.115411625278969 -0.7045238851994985 C 4.121962397189219 -0.7111483044034264 4.121160886349958 -0.7235874489393901 4.1123283274113875 -0.7323218114863901 C 4.095399256112461 -0.7490626730348069 4.028950914615974 -0.7201440976360498 4.006133470691333 -0.7427078675491332 M 4.416225630946231 -0.4909731026092724 L 4.6974389160405865 -0.5919553378232141 L 4.533421834850889 -0.4263344951537609 M 4.458999256287462 -0.14732347313555227 C 4.487540217789568 -0.1794100888072056 4.844654725024766 -0.562830263306046 4.871576472965872 -0.5802939097677728 C 4.888076899123325 -0.5909974350185088 4.920961141535201 -0.580248116606492 4.9313824633188545 -0.587008237817483 C 4.940935341620538 -0.5932050155942249 4.942507698520342 -0.6040959674897391 4.934620890440852 -0.6162541762373359 L 4.818008799551257 -0.7960219770053727 C 4.8101219914717674 -0.8081801857529695 4.799536139623975 -0.8111843295689942 4.789983261322292 -0.8049875517922525 C 4.779561939538638 -0.7982274305812613 4.775971555707724 -0.7638176879307761 4.7594711295502705 -0.7531141626800402 C 4.7325493816091635 -0.7356505162183133 4.192185855178648 -0.5529334358772939 4.160757359763547 -0.5424173372713366 C 4.125291746986313 -0.5305163084103535 4.085952483411168 -0.5531187355222449 4.072057387699628 -0.5441052405742568 C 4.062504509397946 -0.537908462797515 4.060932152498141 -0.5270175109020007 4.06881896057763 -0.514859302154404 L 4.169094091873998 -0.36027636236353167 C 4.1781075868219855 -0.34638126665199265 4.1889985387175 -0.3448089097521883 4.197682973537212 -0.35044234409468084 C 4.211578069248751 -0.35945583904266887 4.2025874708814035 -0.3980432690388721 4.23645676667828 -0.420013662974593 L 4.2599047406915025 -0.4352239356993229 L 4.446977363523794 -0.3332433220189639 C 4.446977363523794 -0.3332433220189639 4.348327826787909 -0.22853332349026528 4.34224872241411 -0.22458991945052048 C 4.321406078846802 -0.2110696770285384 4.2972062712546375 -0.22745242978304764 4.283311175543099 -0.21843893483505955 C 4.274626740723387 -0.21280550049256702 4.271622596907362 -0.20221964864477465 4.28063609185535 -0.18832455293323558 L 4.373024415072227 -0.045899821889959946 C 4.380911223151717 -0.033741613142363236 4.39149707499951 -0.030737469326338474 4.401049953301193 -0.03693424710308024 C 4.414945049012732 -0.04594774205106833 4.415037698835207 -0.09906442793480874 4.458999256287462 -0.14732347313555227" fill="#231f20" fill-rule="nonzero"></path></g><g><path d=" M -1.2455392393482891 2.4552283077425208 Q -1.2773080691196188 2.3728423918645416 -1.2662490918369131 2.2941504387480487 Q -1.2551901145542075 2.2154584856315562 -1.2072013726689332 2.154564375827655 Q -1.159212630783659 2.093670266023754 -1.0794012747768664 2.0628942121827785 Q -1.0133209047497371 2.037412963303691 -0.9484383281791098 2.039502950298566 Q -0.8835557516084825 2.041592937293441 -0.8255528975067865 2.0680232976273003 Q -0.7675500434050905 2.0944536579611595 -0.7231997847168556 2.140442618506626 Q -0.6788495260286208 2.1864315790520923 -0.6543610530798876 2.2499373892080348 Q -0.6371529369537506 2.2945630936419406 -0.6300578202217577 2.32830155058062 Q -0.6229627034897649 2.362040007519299 -0.6228059223573608 2.3905675980187366 Q -0.6226491412249567 2.419095188518175 -0.6250669199637395 2.4486155549479665 L -0.7650130863284265 2.507509164236084 L -0.7703078912903147 2.493778178256421 L -0.6957011345903433 2.400932412980821 Q -0.6847125855271605 2.3552917407907827 -0.6850348293146236 2.3263350569794805 Q -0.6853570731020865 2.2973783731681783 -0.6979322348865711 2.264767281466478 Q -0.7234134837656585 2.198686911439349 -0.7720182542676595 2.158281711904565 Q -0.8206230247696604 2.1178765123697816 -0.8820784028018167 2.1080572978049013 Q -0.943533780833973 2.098238083240021 -1.0070395909899155 2.1227265561887543 Q -1.0928582533628104 2.155819087200556 -1.1408525432045296 2.210307670674924 Q -1.1888468330462485 2.264796254149292 -1.2000823688969027 2.3302480612948533 Q -1.2113179047475569 2.395699868440415 -1.1861675811785874 2.4609220518438155 Q -1.1752470459446929 2.489242210426871 -1.1617210774911775 2.514093201210132 Q -1.1481951090376623 2.5389441919933926 -1.1261181476952913 2.562962321544914 L -0.9845173547800142 2.508359645375441 L -0.9796422424313598 2.4187440234588435 L -0.9659112564516965 2.4134492184969556 L -0.8838417795424282 2.6262795011817355 L -0.8975727655220914 2.631574306143624 L -0.9573086367405795 2.586589217441401 L -1.092043936666025 2.6385444911299296 Q -1.139877592633154 2.6116430682228824 -1.181953343411886 2.5613267532538924 Q -1.224029094190618 2.511010438284903 -1.2455392393482891 2.4552283077425208 M -0.8149338368389721 3.234112457472344 Q -0.866982556055913 3.1627848435491988 -0.8767108739320271 3.083917332525147 Q -0.8864391918081411 3.005049821501095 -0.8558854721925205 2.9337933679393924 Q -0.8253317525769001 2.8625369143776895 -0.7562331265888531 2.8121147176362777 Q -0.6990224362546638 2.770367307431023 -0.635817908301848 2.755558376532954 Q -0.5726133803490322 2.740749445634884 -0.5097404545520414 2.7512322998762806 Q -0.44686752875505054 2.761715154117677 -0.3921074911945387 2.7946281944533427 Q -0.33734745363402685 2.827541234789008 -0.2972265659043014 2.882522937188099 Q -0.26903350966179174 2.921158728063136 -0.2534310416671257 2.9519026242137403 Q -0.23782857367245958 2.982646520364345 -0.23027847883770236 3.0101573194805695 Q -0.22272838400294526 3.0376681185967938 -0.21740727710328622 3.066805440188548 L -0.3372907427411431 3.1599791562344954 L -0.34596552927729995 3.148091220580638 L -0.2979913000034343 3.039072976233744 Q -0.2992157312882292 2.992144094545584 -0.30703691320224125 2.964261797440176 Q -0.3148580951162534 2.936379500334769 -0.3354607131396259 2.908145653156857 Q -0.3772081233448805 2.8509349628226675 -0.4346289381307329 2.82451803843078 Q -0.49204975291658515 2.798101114038893 -0.553948939040335 2.804556439047269 Q -0.6158481251640849 2.811011764055645 -0.670829827563176 2.8511326517853703 Q -0.7451294253997855 2.9053500676363506 -0.7773497870998045 2.970421611942399 Q -0.8095701487998235 3.0354931562484477 -0.8034462021717614 3.1016193507720082 Q -0.7973222555436992 3.1677455452955687 -0.7561170194969543 3.2242132396513923 Q -0.7382252722661309 3.2487321069374735 -0.7187169765181175 3.2692247876436 Q -0.6992086807701041 3.2897174683497266 -0.6716579858205215 3.3071880715751805 L -0.5490636493901156 3.217729335421063 L -0.5675973103628442 3.1299157270060887 L -0.5557093747089866 3.121240940469932 L -0.4212501833985558 3.3055039431047235 L -0.4331381190524133 3.3141787296408802 L -0.5024969630593318 3.2862254959495414 L -0.6191473316628089 3.37134683883558 Q -0.6723211901321714 3.357771641854112 -0.7260068533340032 3.3200894189601264 Q -0.779692516535835 3.2824071960661403 -0.8149338368389721 3.234112457472344 M -0.2787295516817826 3.807788028747886 L -0.0763515688298409 3.254991322131555 L -0.11173566333853979 3.1871451499591505 L -0.10291697121747706 3.175363570912518 L 0.0841155961478145 3.3153603083343888 L 0.07529690402675182 3.3271418873810212 L -0.007685960188441143 3.3075374870332133 L -0.15429822941288457 3.695272502178509 L -0.1506164859608119 3.698028343466341 L 0.2473954519460151 3.431833245031796 L 0.27464035349135285 3.4522264705617536 L 0.1343504572296127 3.911330459144546 L 0.13876854937209993 3.9146374686899446 L 0.4674441255617814 3.664328530111536 L 0.42579888066407 3.5894979779826377 L 0.4346175727851327 3.5777163989360052 L 0.5973506333667447 3.6995245838581843 L 0.588531941245682 3.7113061629048167 L 0.5188033534579506 3.7016227911932043 L 0.04452752341019772 4.049750893819545 L 0.018755319245689073 4.03046000480472 L 0.1548123037977902 3.56933652362451 L 0.15113056034571748 3.5665806823366775 L -0.2529573475172739 3.8270789177627105 L -0.2787295516817826 3.807788028747886 M 0.6932103587257202 4.382348433692885 L 0.7025791132018675 3.7937456192002523 L 0.6468548022649152 3.7413057641923486 L 0.6513094508575752 3.727279679867989 L 0.87397353950679 3.7979972262764665 L 0.8695188909141299 3.8120233106008263 L 0.7847039430704412 3.8207933099524025 L 0.7737287993156416 4.2351761591105515 L 0.7781119506670042 4.236568236795757 L 1.066471016111401 3.854308662000097 L 1.0989063361114835 3.864610036870623 L 1.1173678652624615 4.344315049630722 L 1.1226276468840963 4.3459855428529695 L 1.3507286821294344 4.001526377151324 L 1.2867948995638394 3.9445491062324622 L 1.2912495481564994 3.930523021908102 L 1.4849848378867219 3.9920528555942187 L 1.4805301892940619 4.006078939918579 L 1.4114945863152781 4.019860418936897 L 1.0780510473753475 4.504572854453994 L 1.04736898791581 4.49482831065755 L 1.0242458918764283 4.014607850482518 L 1.0198627405250658 4.013215772797311 L 0.7238924181852577 4.3920929774893285 L 0.6932103587257202 4.382348433692885 M 1.8000244628697666 4.6053941403122165 L 1.6153422030674698 4.046436619830204 L 1.545474102528986 4.015234284183774 L 1.5450693599868026 4.000523365822479 L 1.7786051889723637 3.9940980779653175 L 1.7790099315145471 4.0088089963266125 L 1.7017941448489655 4.044978189792457 L 1.8276765395944228 4.4399303668342 L 1.8322737015823276 4.439803884789768 L 1.9789149696005783 3.9839862988401635 L 2.0129339683110734 3.9830503317113646 L 2.1880940394461548 4.430014174550706 L 2.1936106338316406 4.429862396097388 L 2.2957727700951454 4.029556142049382 L 2.216659752763079 3.996767905696656 L 2.2162550102208955 3.982056987335361 L 2.419449570086285 3.9764664809714523 L 2.419854312628469 3.9911773993327477 L 2.359188309119344 4.026891257438636 L 2.203655285407803 4.594289016811059 L 2.17147515149247 4.595174391122085 L 1.9917432147783702 4.149256462724757 L 1.9871460527904654 4.149382944769188 L 1.8322045967850997 4.60450876600119 L 1.8000244628697666 4.6053941403122165 M 2.700618936429598 4.510840073614875 L 2.6961408118592947 4.496821466840627 L 2.7550385343047776 4.439384327053492 L 2.6016627677719 3.959247045035496 L 2.520374422474902 3.946591150951391 L 2.515896297904599 3.932572544177143 L 2.741946332139349 3.860362785481007 Q 2.8339434390953517 3.830975092988394 2.8991261971359887 3.8521552716244223 Q 2.9643089551766253 3.873335450260451 2.9855800468855644 3.9399238324381294 Q 3.001253482881625 3.9889889561479976 2.980414075753941 4.038613752093345 Q 2.9595746686262574 4.088238548038691 2.910813708522466 4.1260229107722415 L 3.1548121955900323 4.315542311279063 L 3.2227147288169875 4.328611912668621 L 3.2271928533872902 4.342630519442869 L 3.101025392419058 4.382933640575596 L 2.8462453012311872 4.171753535203197 L 2.7647621493558705 4.1977826342680835 L 2.833613314624279 4.413318713422147 L 2.910800728089968 4.4282501843578626 L 2.915278852660271 4.44226879113211 L 2.700618936429598 4.510840073614875 M 2.737188138111784 3.9149890503372955 L 2.680237548091401 3.9331814314041513 L 2.749368596145454 4.149593673481606 L 2.8115761637061794 4.129721995700886 Q 2.8667744278797813 4.112089380205318 2.893199350310127 4.069370460820732 Q 2.9196242727404735 4.026651541436146 2.904230719530057 3.978462580649668 Q 2.8885572835339963 3.9293974569397996 2.843538413141558 3.91239735614101 Q 2.798519542749119 3.89539725534222 2.737188138111784 3.9149890503372955 M 3.7055731124747613 4.087871965755439 Q 3.6305456019514617 4.134429138616014 3.551170827944657 4.138219879334709 Q 3.4717960539378527 4.142010620053405 3.403029616595212 4.106202952554087 Q 3.334263179252571 4.0703952850547696 3.2891609180438897 3.997712384235323 Q 3.2518181856453037 3.9375340685030933 3.241787355472943 3.873397501443924 Q 3.231756525300583 3.8092609343847545 3.2469215137085565 3.7473503685828957 Q 3.2620865021165297 3.685439802781037 3.2990106375983594 3.6333002002059755 Q 3.335934773080189 3.581160597630915 3.393768479108566 3.545272776884222 Q 3.4344083806420196 3.520054308251411 3.466235056959994 3.506799617285771 Q 3.498061733277968 3.4935449263201304 3.526060969805489 3.488077682599293 Q 3.55406020633301 3.4826104388784564 3.5835143545124235 3.4794878048614724 L 3.667442178206291 3.606016485820238 L 3.6549375931190746 3.613776014630334 L 3.549821014531587 3.557767004810832 Q 3.502932332709345 3.555471207466753 3.474542327897849 3.5611809364629057 Q 3.4461523230863524 3.5668906654590584 3.4164539335042132 3.585319546383036 Q 3.356275617771983 3.622662278781622 3.325629937141059 3.6779419868458403 Q 3.294984256510135 3.733221694910059 3.2967827904117124 3.795430582856648 Q 3.2985813243132895 3.857639470803237 3.3344691450599826 3.9154731768316138 Q 3.382966200123081 3.9936268336267173 3.4454402233974624 4.030632968285259 Q 3.5079142466718443 4.067639102943801 3.574313424258155 4.066487781818868 Q 3.6407126018444655 4.065336460693935 3.700109381008744 4.02847869884598 Q 3.7259000877511284 4.012474670675158 3.747797070871111 3.9945569226091084 Q 3.7696940539910937 3.9766391745430596 3.789180143575275 3.9504751709888737 L 3.7091600027211626 3.8215216372769527 L 3.6202044261482813 3.833422553565069 L 3.6124448973381855 3.8209179684778523 L 3.8062659661900424 3.7006452719213683 L 3.8140254950001378 3.7131498570085846 L 3.7809532054886485 3.7802188974240174 L 3.857093581937713 3.9029201385923296 Q 3.839571780735943 3.9549271735034943 3.797972385063761 4.005638026733959 Q 3.7563729893915787 4.056348879964425 3.7055731124747613 4.087871965755439 M 4.176856941852536 3.7381281367294785 L 4.166033007872266 3.7281573098455687 L 4.18882730734114 3.6491105727344437 L 3.8181075685168877 3.3076097519605328 L 3.7411935991466634 3.3368023546521086 L 3.730369665166393 3.326831527768199 L 3.8861638352274843 3.1577075593264783 L 3.896987769207754 3.167678386210388 L 3.8741934697388807 3.246725123321513 L 4.033846495947865 3.393794819859183 L 4.245726567230948 3.163786222778443 L 4.086073541021964 3.016716526240773 L 4.00915957165174 3.045909128932349 L 3.9983356376714694 3.0359383020484394 L 4.15412980773256 2.866814333606719 L 4.16495374171283 2.8767851604906287 L 4.1421594422439565 2.9558318976017537 L 4.512879181068208 3.2973327183756647 L 4.589793150438433 3.2681401156840884 L 4.600617084418703 3.278110942567998 L 4.444822914357612 3.447234911009719 L 4.433998980377342 3.4372640841258093 L 4.456793279846216 3.358217347014684 L 4.282933840288127 3.1980609401918825 L 4.071053769005044 3.4280695372726226 L 4.2449132085631325 3.588225944095424 L 4.321827177933357 3.559033341403848 L 4.332651111913627 3.569004168287758 L 4.176856941852536 3.7381281367294785 M 4.780438830317278 3.018280501534742 L 4.767294027931113 3.011663167797743 L 4.767518690650698 2.929395821524422 L 4.3173092089245655 2.702752141032195 L 4.251360534274157 2.751932818620519 L 4.238215731887993 2.7453154848835197 L 4.341611571528608 2.5399279475996996 L 4.354756373914772 2.546545281336699 L 4.354531711195187 2.62881262761002 L 4.5484175463911125 2.72641830023076 L 4.689035888302349 2.4470912495247648 L 4.495150053106422 2.3494855769040246 L 4.429201378456014 2.3986662544923485 L 4.41605657606985 2.3920489207553493 L 4.5194524157104645 2.186661383471529 L 4.532597218096629 2.1932787172085284 L 4.5323725553770435 2.2755460634818494 L 4.982582037103177 2.502189743974076 L 5.0485307117535845 2.4530090663857522 L 5.06167551413975 2.4596264001227515 L 4.958279674499135 2.6650139374065716 L 4.945134872112971 2.6583966036695723 L 4.945359534832556 2.5761292573962518 L 4.7342211465047885 2.4698383342456998 L 4.593602804593553 2.749165384951695 L 4.80474119292132 2.8554563081022466 L 4.870689867571728 2.8062756305139227 L 4.883834669957892 2.812892964250922 L 4.780438830317278 3.018280501534742 M 4.969235332378405 2.11721047906112 L 4.551307151278885 2.0393522926243435 L 4.579432926493132 1.9421643795019388 L 4.9743491096900865 2.099539949402501 L 4.969235332378405 2.11721047906112 M 5.152915150035091 2.1607914316765435 Q 5.146522928395489 2.1828795937498175 5.1255752888807535 2.1940528264292696 Q 5.104627649366018 2.2052260591087216 5.0834230137756755 2.1990895263347037 Q 5.0613348517024015 2.1926973046951024 5.050033774590157 2.172191428421832 Q 5.038732697477913 2.1516855521485616 5.045124919117515 2.129597390075288 Q 5.051261451891532 2.108392754484945 5.0718951725975945 2.096649914131236 Q 5.092528893303657 2.084907073777526 5.1146170553769315 2.091299295417128 Q 5.135821690967274 2.0974358281911454 5.147436686888192 2.118511312138673 Q 5.159051682809109 2.139586796086201 5.152915150035091 2.1607914316765435" fill="#96b613" fill-rule="nonzero"></path></g><g clip-path="url(#SvgjsClipPath1004)"><g clip-path="url(#SvgjsClipPath100031868091-b3c4-4bd4-82e5-086cd740fd88)"><path d=" M 3.459951627585697 0.690702079976828 C 3.226654587638622 0.40643145569722205 2.8095433761667974 0.06401178617402457 2.1289981889214404 0.0018133335325626581 C 1.9266279417383187 -0.01668711839781667 1.7050786331433065 0.1083883963666183 1.6578874623142807 0.28502710698030675 L 0.18155584816824524 1.453881877528173 C -0.15428909670621332 1.7197076736053922 0.046334565417937686 2.106904444162731 0.22049245776315016 2.138799089793758 C 0.27247839394514867 2.148321872026112 0.475249131969818 2.1285531990974986 0.7142865406457422 2.1068599451803367 C 0.6349226055457263 2.5454975393853454 1.2641270918538006 2.5782821646642557 1.2055108072950704 2.060603252981589 C 1.2561395245140454 2.0557194896638284 1.3079585895120656 2.0506799799076876 1.360578636193181 2.0455514721867587 C 1.4277164758803973 2.3152931787146653 1.7922187654167052 2.2764121928477525 1.800350954449241 2.0021649643524353 C 1.8779052642652272 1.994451807404111 1.955704318484381 1.986683026727794 2.033748117106703 1.9788586223234845 C 1.9308108460833715 2.5690263763262666 2.6592035641480685 2.522146698374 2.579672757864074 1.9237466326282953 C 3.2015460368227076 1.860535828137366 3.7132843343557513 1.8072816709571342 3.718613087497454 1.8067365584228054 C 3.748032972309825 1.8036715834577954 3.7713825642603145 1.780594788720193 3.7747930527701037 1.75121295314047 C 3.8085344061704887 1.4607569703080734 3.9235086519314457 1.2557056594357026 3.459951627585697 0.690702079976828 Z" fill="#231f20" transform="matrix(1,0,0,1,0,0)" fill-rule="nonzero"></path></g><g clip-path="url(#SvgjsClipPath100031868091-b3c4-4bd4-82e5-086cd740fd88)"><path d=" M 2.018451591908704 0.12071461448980551 C 2.5758013463957803 0.1467910181727937 3.02680965770637 0.36415742242275334 3.3590724344980964 0.7668398388532661 C 3.482185333569002 0.9166300817296036 3.582263625281877 1.0839484171009026 3.6560030192688475 1.2632704864427151 C 3.552733303037593 1.247396503736468 3.447526468834289 1.2753718107308072 3.365780656094018 1.3404428466598155 C 3.099554369175252 0.7196820422610362 2.455587345457909 0.3674948461023166 1.7987378663374516 0.2681174936705191 C 1.8585333739296281 0.1505623069307003 1.9925420594096943 0.12466389917728879 2.018451591908704 0.12071461448980551 Z" fill="#f19d17" transform="matrix(1,0,0,1,0,0)" fill-rule="nonzero"></path></g><g clip-path="url(#SvgjsClipPath100031868091-b3c4-4bd4-82e5-086cd740fd88)"><path d=" M 3.457481934062821 1.2024515022554703 C 3.315474556497401 0.9853854661366714 3.1608962164056265 0.7773527234438905 2.8381005981182605 0.5650592031868671 C 2.50403561253957 0.3467360708154327 2.231323598936852 0.27016444686065133 2.0218557640618586 0.19479429543051283 C 2.0499234972069864 0.2000340506074272 2.1391995806353052 0.2039610858037134 2.365610403056882 0.2696749580543154 C 2.8546653443144936 0.42658949472178465 3.2435642009484096 0.7129738206651139 3.4497391111262337 1.1835060605011491 Z" fill="#231f20" transform="matrix(1,0,0,1,0,0)" fill-rule="nonzero"></path></g><g clip-path="url(#SvgjsClipPath100031868091-b3c4-4bd4-82e5-086cd740fd88)"><path d=" M 0.2532325840596668 2.0157149044914626 C 0.1837585477967563 2.0125221025046804 0.1462236561472677 1.9029989820870101 0.1298146563894148 1.8260268672906814 C 0.8105934632923413 1.761814835695883 0.7801227850979283 1.7579545489731878 0.7892784507255303 1.775464898545297 C 0.8038852416964184 1.8031766398312707 0.799568840404184 1.8776568116135264 0.7562045820610571 1.976244307107827 C 0.3614986082247011 2.0124664787766875 0.2714326678588852 2.016582634648149 0.2532325840596668 2.0157149044914626 Z" fill="#f19d17" transform="matrix(1,0,0,1,0,0)" fill-rule="nonzero"></path></g><g clip-path="url(#SvgjsClipPath100031868091-b3c4-4bd4-82e5-086cd740fd88)"><path d=" M 1.182482583906083 1.9359727280410957 C 1.1300961568825376 1.6321114267624532 1.4001938552695976 1.6495216536241755 1.3593660389229394 1.8694467493618003 C 1.3560953637169677 1.8870015979163033 1.3538815393428572 1.903644217331726 1.3524686966518418 1.91950810455525 C 1.294627436036477 1.9251372258281136 1.2379653984545569 1.9306254336567288 1.182482583906083 1.9359727280410957 Z" fill="#f19d17" transform="matrix(1,0,0,1,0,0)" fill-rule="nonzero"></path></g><g clip-path="url(#SvgjsClipPath100031868091-b3c4-4bd4-82e5-086cd740fd88)"><path d=" M 1.8094509963488499 1.7370734014847202 C 1.876288467904905 1.6546501613451046 2.035138710306521 1.6478418170387954 2.090428695931287 1.6480754366963648 C 2.091641293201528 1.6918624353722358 2.073452334147908 1.7830964740258985 2.059635400114516 1.8494333320300187 C 1.9673000116465966 1.8586779956224093 1.8748088767402984 1.8679337839603982 1.7828851038595257 1.877078324842402 C 1.7725947141808722 1.8177723060565611 1.7813165147301313 1.7717714830065803 1.8094509963488499 1.7370734014847202 Z" fill="#f19d17" transform="matrix(1,0,0,1,0,0)" fill-rule="nonzero"></path></g><g clip-path="url(#SvgjsClipPath100031868091-b3c4-4bd4-82e5-086cd740fd88)"><path d=" M 2.152760645519931 2.03483834217536 C 2.1738976621571657 1.8768669546760295 2.253517466405948 1.6504338827632559 2.194378318804086 1.562403770841974 C 2.175729192912071 1.5342452590603222 2.143009973647068 1.518742397772021 2.1094075119224036 1.5221433165208418 C 1.8138230213690785 1.511708305149407 1.5940759215610298 1.6515686068143074 1.666509140153153 1.9362508466810593 C 1.7094284086723377 2.1050799858845695 1.559889578336703 2.1439387222602857 1.50297537985455 2.0613708604278886 C 1.4289624473874338 1.9538168199811612 1.547218493099961 1.819518891115533 1.4460945556091924 1.6725498770131622 C 1.3187940917250487 1.487556482454967 0.9686204745196652 1.5717596818903496 1.0685874384681857 2.0085171940892037 C 1.069366170660084 2.019641939687749 1.1159009814987957 2.1933548422090197 1.0341007271126978 2.279604994834535 C 0.9451027623243424 2.3734310992126586 0.7547694898788458 2.2889052821549183 0.8699328563149776 2.0311226771454463 C 0.9272920446210732 1.9027653624294407 0.9385947861491941 1.788147108527638 0.90094864704372 1.7166261190745955 C 0.873548398634505 1.6646179334014004 0.8200828712879003 1.6333351487782934 0.7475606547309891 1.640254740540588 L 0.14528917751699105 1.6976918020658727 C 0.21630955341809763 1.5417451182654769 0.273257126137047 1.559956326810294 1.7330796178148427 0.3865515353126232 C 1.7561078412038296 0.3893549712034564 1.7945549619923995 0.3946503501083636 1.844327073800287 0.40379489099036714 C 2.173363674368436 0.464113261625675 2.952207113722531 0.6805896862277511 3.2545443248541734 1.4012507061014592 C 2.7875608788640736 1.445749688495637 2.5775256819635546 1.441355413984212 2.472953073337237 1.5884245507969692 C 2.4234479554237143 1.6579987097702662 2.4124122077899584 1.750845836535718 2.4401016995847353 1.8643182416408712 C 2.555376313476853 2.336775062465455 2.1032777770976057 2.4055482397556562 2.152760645519931 2.03483834217536 Z" fill="#facb57" transform="matrix(1,0,0,1,0,0)" fill-rule="nonzero"></path></g><g clip-path="url(#SvgjsClipPath100031868091-b3c4-4bd4-82e5-086cd740fd88)"><path d=" M 2.5558101785551957 1.7992496046349848 C 2.5115448158185876 1.5219541958456664 2.820490125835765 1.5893701541728458 3.3498945193792973 1.5189060155516652 C 3.3690663271536625 1.5167608096255802 3.386272531342083 1.506149772886991 3.3967964468227607 1.4899816769954497 C 3.4009459769310175 1.4834180770923082 3.494560711142769 1.340309349712633 3.6884094031974057 1.3995152457880862 L 3.655179788094554 1.6863890605377518 C 3.510268851927914 1.7014408413325823 3.0696955519887585 1.7470522982866143 2.5558101785551957 1.7992496046349848 Z" fill="#f19d17" transform="matrix(1,0,0,1,0,0)" fill-rule="nonzero"></path></g><g clip-path="url(#SvgjsClipPath100031868091-b3c4-4bd4-82e5-086cd740fd88)"><path d=" M 1.3273378963447298 0.7077896892161922 C 1.3942974993808284 0.7629632287916106 1.4848605909459491 0.7799732011548479 1.5672764094141363 0.7528560336358957 C 1.698681904424143 0.7069330838051043 1.741100559391393 0.5615104093409314 1.631621937956117 0.466872198534114 Z" fill="#e45f4c" transform="matrix(1,0,0,1,0,0)" fill-rule="nonzero"></path></g><g clip-path="url(#SvgjsClipPath100031868091-b3c4-4bd4-82e5-086cd740fd88)"><path d=" M 1.6194514662713098 0.5276911827213564 C 1.690649838101994 0.6254888212781605 1.5634494969282369 0.7653936219254552 1.4171590923073776 0.6909134501432004 C 1.4218982339323576 0.6904462108280615 1.5003276904020957 0.7071555787170752 1.568110765334027 0.6614328743070576 C 1.6111635308003942 0.6312180652614109 1.6316664369385117 0.58743106658554 1.6194514662713098 0.5276911827213564 Z" fill="#231f20" transform="matrix(1,0,0,1,0,0)" fill-rule="nonzero"></path></g><g clip-path="url(#SvgjsClipPath100031868091-b3c4-4bd4-82e5-086cd740fd88)"><path d=" M 1.7583105408323414 1.3596552823085017 L 1.908895097254239 1.5424904762205796 L 2.0935658741900767 1.5217761999160897 C 2.096013318221756 1.375786163426391 1.898994073671534 1.280992206181194 1.7583105408323414 1.3596552823085017 Z" fill="#e45f4c" transform="matrix(1,0,0,1,0,0)" fill-rule="nonzero"></path></g><g clip-path="url(#SvgjsClipPath100031868091-b3c4-4bd4-82e5-086cd740fd88)"><path d=" M 1.8287079309799303 1.3926401530081858 C 1.8541016391701877 1.3832119042498046 1.8816502042073502 1.3811865581295817 1.9081497392991362 1.38679966156895 C 1.9517834895959953 1.3945992234287372 1.9898668525829721 1.4209924273327093 2.012488728267884 1.4591105079594886 C 2.017503582900382 1.4683007328551156 2.0215309550103884 1.4779962583051314 2.0245034535143125 1.4880348465157043 C 2.035514627892662 1.5261158112697275 2.023710817092595 1.5671371896602857 1.9941440227758842 1.5935419337722998 L 1.9995172748999812 1.580192239054046 C 2.007738461897306 1.5485868368085816 2.0118212435319713 1.5354707617478978 1.9997286450663536 1.4972350111257005 C 1.998771916944879 1.49509905997078 1.9966915895179511 1.4904266668193913 1.9972478267978782 1.4916726383264283 C 1.954528803699468 1.397034427519611 1.829942777741369 1.3930851428321276 1.8287079309799303 1.3926401530081858 Z" fill="#231f20" transform="matrix(1,0,0,1,0,0)" fill-rule="nonzero"></path></g><g clip-path="url(#SvgjsClipPath100031868091-b3c4-4bd4-82e5-086cd740fd88)"><path d=" M 2.992690062955634 1.171101969158772 C 2.9539648235271008 1.0097931579798778 2.700109253713916 0.9630692264659914 2.6024339873586957 1.0995587302145329 C 2.5104212165131345 1.2280606666233196 2.6496362829333195 1.3959775766877494 2.827576588782038 1.3734833410874925 C 2.9420835952278557 1.3589989223181873 3.016040903966979 1.2683878694180433 2.992690062955634 1.171101969158772 Z" fill="#e45f4c" transform="matrix(1,0,0,1,0,0)" fill-rule="nonzero"></path></g><g clip-path="url(#SvgjsClipPath100031868091-b3c4-4bd4-82e5-086cd740fd88)"><path d=" M 2.751772572273556 1.3257804319609339 C 2.725204365716851 1.324070660869592 2.6995496187152934 1.3154206228180798 2.677370273710491 1.3006941306362163 C 2.603813455812915 1.2537365794647604 2.578460160593833 1.1369378754256423 2.6902861033504015 1.082560118939957 C 2.655932888942096 1.112229815451275 2.6329491645355034 1.1477066291650333 2.6360195943207017 1.1926951003655468 C 2.6379533507628588 1.2151827677768705 2.645642448432504 1.2367942276445678 2.658346958736981 1.2554497902869364 C 2.668110824879016 1.2695801054479603 2.679959708429372 1.2821491490621555 2.693490030082782 1.2927288127876582 C 2.707566418417331 1.3033047013533887 2.7226721778453786 1.3124359894359736 2.7385786239936825 1.319984439504092 C 2.747011181157379 1.3235221086044293 2.751772572273556 1.3257804319609339 2.751772572273556 1.3257804319609339 Z" fill="#231f20" transform="matrix(1,0,0,1,0,0)" fill-rule="nonzero"></path></g><g clip-path="url(#SvgjsClipPath100031868091-b3c4-4bd4-82e5-086cd740fd88)"><path d=" M 2.943563186392462 1.1736384111552403 C 2.959708560475383 1.2087052328473649 2.9546613796060077 1.2498836829096218 2.930524984550968 1.2800132285685222 C 2.924139380577403 1.2847189959567065 2.9088984791073975 1.313621085021725 2.8507605586094042 1.3217310245630636 C 2.8631201509693875 1.3126532321546516 2.8699284952756963 1.3082812071344234 2.8701732396788646 1.30792521527527 C 2.9107118126399607 1.2748402218651989 2.9358092387102768 1.249197683260554 2.9424062128502135 1.1821154673013312 C 2.9430180738581337 1.176742215177234 2.943563186392462 1.1736384111552403 2.943563186392462 1.1736384111552403 Z" fill="#231f20" transform="matrix(1,0,0,1,0,0)" fill-rule="nonzero"></path></g><g clip-path="url(#SvgjsClipPath100031868091-b3c4-4bd4-82e5-086cd740fd88)"><path d=" M 1.4953883033563427 1.1942748142405402 C 1.4566741886734076 1.0329660030616459 1.202807494114624 0.9862420715477593 1.105143352505002 1.122731575296301 C 1.0131305816594411 1.2512335117050877 1.1523456480796266 1.4191504217695174 1.3302859539283445 1.3966561861692603 C 1.444826334610958 1.3821717673999556 1.5187502691132855 1.2915607144998114 1.4953883033563427 1.1942748142405402 Z" fill="#e45f4c" transform="matrix(1,0,0,1,0,0)" fill-rule="nonzero"></path></g><g clip-path="url(#SvgjsClipPath100031868091-b3c4-4bd4-82e5-086cd740fd88)"><path d=" M 1.2544596879286654 1.348953277042702 C 1.2278936089680976 1.3472327245056073 1.2022415693680013 1.3385835993114958 1.1800573893656003 1.3238669757179844 C 1.1069121870551706 1.2771430442040976 1.0808357833721824 1.1602553422001913 1.1929732190055107 1.105732964021725 C 1.158898123237169 1.135135666638678 1.1356251554450143 1.1707126030628232 1.1387067099758106 1.2158123217193222 C 1.140603560818875 1.2383182448339298 1.1482872565878093 1.2599513932706576 1.1610118249008923 1.2786115106231057 C 1.1707782255313561 1.2927397748581997 1.1826267713242011 1.305308460186412 1.196154896246694 1.3158905331238278 C 1.2102312845812428 1.326466421689558 1.2253370440092906 1.3355977097721432 1.2412434901575942 1.3431461598402616 C 1.2497205463036856 1.3466949536861976 1.2544596879286654 1.348953277042702 1.2544596879286654 1.348953277042702 Z" fill="#231f20" transform="matrix(1,0,0,1,0,0)" fill-rule="nonzero"></path></g><g clip-path="url(#SvgjsClipPath100031868091-b3c4-4bd4-82e5-086cd740fd88)"><path d=" M 1.4462725515387687 1.1968112562370083 C 1.471859466415421 1.2620801386636686 1.435659544237757 1.2969339666239081 1.4332343496972744 1.3031860736502903 C 1.4134160816366668 1.3273486747029155 1.3846206985658343 1.3424090214972841 1.3534699237557104 1.3449038696448317 C 1.3658295161156935 1.3358372019820182 1.372626735676404 1.3314540522161915 1.3728714800795723 1.3310980603570381 C 1.4132320571110912 1.2981799381309451 1.4384518553829915 1.27261527274549 1.4451155779965195 1.2052883123830993 C 1.4457163142588414 1.199915060259002 1.4462725515387687 1.1968112562370083 1.4462725515387687 1.1968112562370083 Z" fill="#231f20" transform="matrix(1,0,0,1,0,0)" fill-rule="nonzero"></path></g><g clip-path="url(#SvgjsClipPath100031868091-b3c4-4bd4-82e5-086cd740fd88)"><path d=" M 2.2416918618346955 0.5704435800565627 C 2.052092822598703 0.5044849634027927 2.004734780585699 0.7069775827874984 2.099484238848502 0.6657826498360885 C 2.1399894375728024 0.6481833022991912 2.190918522922938 0.6938837572180117 2.1644638778896 0.7334989762944284 C 2.1469201540806955 0.7597200016701976 2.1061590862076285 0.7708447472687421 2.072473356535236 0.7841721924957983 C 1.9506017685031816 0.8323868399198898 2.107683176354629 1.0168907456717493 2.1763896051712397 0.9067335147549623 C 2.195590916074327 0.8759513436837899 2.2134683822511882 0.8373484764568405 2.242704213684163 0.824543894272916 C 2.2867137072720047 0.8052758348962371 2.324070602991917 0.8623124055799745 2.2998075328414918 0.8988126958887986 C 2.243071330288915 0.9841951183576272 2.4534068953205947 0.9714016609193011 2.4185641921059537 0.7761846251560434 C 2.4060711027987876 0.7065437177091553 2.339812118013857 0.6045854242984955 2.2416918618346955 0.5704435800565627 Z" fill="#dcb089" transform="matrix(1,0,0,1,0,0)" fill-rule="nonzero"></path></g><g clip-path="url(#SvgjsClipPath100031868091-b3c4-4bd4-82e5-086cd740fd88)"><path d=" M 2.187903716865733 0.8345561653116061 C 2.171350095415099 0.8600763317146669 2.1545294800701 0.8896792797523937 2.1357286600085597 0.9055654164671152 C 2.1079167960121983 0.9236208785735527 2.081751394364422 0.9117507750199059 2.0694807999692277 0.8823591971485514 C 2.128097084527958 0.9245108582214364 2.1230686995174164 0.8773196873924108 2.1818407305145264 0.8381049591575418 C 2.1856008945268344 0.835779887327446 2.187903716865733 0.8345561653116061 2.187903716865733 0.8345561653116061 Z" fill="#231f20" transform="matrix(1,0,0,1,0,0)" fill-rule="nonzero"></path></g><g clip-path="url(#SvgjsClipPath100031868091-b3c4-4bd4-82e5-086cd740fd88)"><path d=" M 2.126261501504198 0.6016596162060783 C 2.1907294022477632 0.5614214113761431 2.318396982736659 0.5960972434068061 2.3680578470885614 0.7254224109898851 C 2.3600146560208137 0.7193038009106858 2.2831760381716677 0.5829255446181295 2.1387657155569624 0.5986003111664786 C 2.1308226471996012 0.6004136446990413 2.126261501504198 0.6016596162060783 2.126261501504198 0.6016596162060783 Z" fill="#231f20" transform="matrix(1,0,0,1,0,0)" fill-rule="nonzero"></path></g><g clip-path="url(#SvgjsClipPath100031868091-b3c4-4bd4-82e5-086cd740fd88)"><path d=" M 0.6299609690087754 1.512531536323699 C 0.5975434603346174 1.4855095292648348 0.6404516041082031 1.4471514064410536 0.6728579880367626 1.4742290372279108 C 0.7078453129441852 1.5033981201872944 0.7522552973735741 1.4771437205747293 0.7384939870681748 1.4443924695326145 C 0.7192036782002988 1.3983582722458376 0.7589857684606933 1.354715895262748 0.8143981262870431 1.3614018673674733 C 0.8422099902834039 1.3647392910470366 0.8515992755685753 1.3265925383896278 0.8060990660705294 1.3193169547681796 C 0.7631352985689502 1.3124529867338777 0.7688311683154052 1.2574077455122799 0.8117504368345895 1.2642494640553847 C 0.9424995718542823 1.285119486798254 0.9224639050313036 1.4302306683856676 0.8117504368345895 1.4168809736674142 C 0.8028506403557542 1.4157684991075599 0.796520660110182 1.4227993383258397 0.7996022146409789 1.4301639199120764 C 0.837092607308074 1.5196513735067676 0.7147982789432754 1.5831847956200547 0.6299609690087754 1.512531536323699 Z" fill="#96b613" transform="matrix(1,0,0,1,0,0)" fill-rule="nonzero"></path></g><g clip-path="url(#SvgjsClipPath100031868091-b3c4-4bd4-82e5-086cd740fd88)"><path d=" M 2.244728917383098 1.1094041300692448 C 2.277335546732432 1.0825934931767527 2.307027492734947 1.1318983656695016 2.274376364403219 1.1586867530707965 C 2.2391887940750226 1.1876110916270122 2.2566991436471318 1.2361483566734615 2.2914305994057873 1.2287726503416263 C 2.340257107837799 1.2183932626981846 2.37571167206036 1.2656178077640057 2.358813183496171 1.3188163412162452 C 2.3503361273500802 1.3455157306527517 2.3860799349582034 1.3618579819370134 2.4017102025241583 1.3185159730850844 C 2.4164616151878278 1.277576909282441 2.469493277456089 1.2934407965059653 2.454752989538018 1.3343353613262146 C 2.4108102444237676 1.4562848225774587 2.2701489610757717 1.414934143187669 2.3048136683608362 1.305822638357145 C 2.307528106286881 1.2973010832286602 2.301832236540426 1.289758505712847 2.2940337898758467 1.2913604690790372 C 2.1991174604290658 1.3115741318315928 2.1595022413526492 1.17960127479606 2.244728917383098 1.1094041300692448 Z" fill="#96b613" transform="matrix(1,0,0,1,0,0)" fill-rule="nonzero"></path></g><g clip-path="url(#SvgjsClipPath100031868091-b3c4-4bd4-82e5-086cd740fd88)"><path d=" M 1.6657304079612547 1.1185375462056497 C 1.626871671585539 1.1020617979742053 1.656830611482419 1.0529015471742376 1.6956782231125362 1.0694329191336744 C 1.737618514019049 1.0872325120913457 1.7725168409616827 1.0492192563811193 1.7498891084142432 1.0218635069542985 C 1.7180834607480047 0.9833941366745319 1.7435035044406786 0.9300954805119055 1.798493121934284 0.9204280765867704 C 1.8264718571146228 0.9155109390322138 1.8237351696973811 0.876362959270936 1.7783462076553198 0.8826039415517194 C 1.7617619191110014 0.8859453442627526 1.7453641303110445 0.8760970252246609 1.7405220726202688 0.8598872110394917 C 1.73180027207101 0.8149209893301751 1.8241134110477317 0.8185810306320962 1.8604245806813806 0.8529564945315985 C 1.9054909251010839 0.8956198939020164 1.8782241736390515 0.9627243593524364 1.811987438345318 0.9743608432485139 C 1.8031766398312707 0.9759071828867115 1.7991272324334004 0.9844509875063936 1.8042001164263368 0.9905918470767902 C 1.8442492005810969 1.039040114158451 1.8171048213206487 1.1045648657338778 1.7527259185418718 1.1238440498561553 C 1.7239920541414797 1.1322402048613438 1.6932307544452538 1.130363844253275 1.6657304079612547 1.11853754620565 Z" fill="#96b613" transform="matrix(1,0,0,1,0,0)" fill-rule="nonzero"></path></g></g><g><path d=" M -0.6090099513481722 1.2211855738434192 A 2.5151405493211727 2.5151405493211727 0 0 1 4.421271147294173 1.2211855738434192 A 2.5151405493211727 2.5151405493211727 0 0 1 -0.6090099513481722 1.2211855738434192 Z M -0.5590099513481723 1.2211855738434192 A 2.465140549321173 2.465140549321173 0 0 0 4.371271147294173 1.2211855738434192 A 2.465140549321173 2.465140549321173 0 0 0 -0.5590099513481723 1.2211855738434192 Z" fill="#231f20" fill-rule="nonzero"></path></g><g><path d=" M -2.0322768744807305 1.2211855738434192 A 3.9384074724537306 3.9384074724537306 0 0 1 5.844538070426731 1.2211855738434192 A 3.9384074724537306 3.9384074724537306 0 0 1 -2.03227687448073 1.2211855738434192 Z M -1.9822768744807306 1.2211855738434192 A 3.8884074724537308 3.8884074724537308 0 0 0 5.79453807042673 1.2211855738434192 A 3.8884074724537308 3.8884074724537308 0 0 0 -1.982276874480731 1.2211855738434192 Z" fill="#231f20" fill-rule="nonzero"></path></g><g transform="matrix(0.15661649633089297,-0.9876594924755371,0.9876594924755371,0.15661649633089297,-1.8881283938468558,-0.47772699530279317)"><g clip-path="url(#SvgjsClipPath1005)"><path d=" M -1.409515634510833 0.8870244817547588 C -1.409515634510833 0.8974828256343506 -1.4013518565032417 0.9053926194372613 -1.3901266254593456 0.9053926194372613 L -1.2421577499537144 0.9053926194372613 L -1.3199698022379827 1.114333088252354 C -1.3304281461175744 1.1421436329957264 -1.3016016645554798 1.1569385757529507 -1.2832335268729773 1.1344892747358086 L -1.0449528027331785 0.8395715242905435 C -1.0403607683125529 0.8337052148315773 -1.0380647511022403 0.8283468737819724 -1.0380647511022403 0.8224805643230062 C -1.0380647511022403 0.8117638822237964 -1.046227077771519 0.8041124266405035 -1.0574517282800904 0.8041124266405035 L -1.205421474588709 0.8041124266405035 L -1.1276094223044408 0.5949142001411176 C -1.1171510784248488 0.567106267806708 -1.1459775599869433 0.5523095834435086 -1.1643456976694462 0.5750149005389689 L -1.4023721473369015 0.8699306191105964 C -1.4069644720251897 0.8755443957031945 -1.409515634510833 0.8809027367527995 -1.409515634510833 0.8870244817547588 Z" fill="#231f20" transform="matrix(1,0,0,1,0,0)" fill-rule="nonzero"></path></g></g><g transform="matrix(-0.15661649633089297,-0.9876594924755371,-0.9876594924755371,0.15661649633089297,6.680783864040259,5.704863817374658)"><g clip-path="url(#SvgjsClipPath1006)"><path d=" M 4.850324785977592 0.8870244817547588 C 4.850324785977592 0.8974828256343506 4.858488563985183 0.9053926194372613 4.86971379502908 0.9053926194372613 L 5.017682670534711 0.9053926194372613 L 4.939870618250443 1.114333088252354 C 4.929412274370851 1.1421436329957264 4.958238755932945 1.1569385757529507 4.976606893615448 1.1344892747358086 L 5.214887617755246 0.8395715242905435 C 5.219479652175872 0.8337052148315773 5.221775669386185 0.8283468737819724 5.221775669386185 0.8224805643230062 C 5.221775669386185 0.8117638822237964 5.213613342716906 0.8041124266405035 5.202388692208335 0.8041124266405035 L 5.054418945899716 0.8041124266405035 L 5.132230998183984 0.5949142001411176 C 5.142689342063576 0.567106267806708 5.113862860501482 0.5523095834435086 5.095494722818979 0.5750149005389689 L 4.8574682731515235 0.8699306191105964 C 4.852875948463235 0.8755443957031945 4.850324785977592 0.8809027367527995 4.850324785977592 0.8870244817547588 Z" fill="#231f20" transform="matrix(1,0,0,1,0,0)" fill-rule="nonzero"></path></g></g></g><defs><clipPath id="SvgjsClipPath1004"><path d=" M 0 0 h 3.812261195946001 v 2.4423711476868384 h -3.812261195946001 Z"></path></clipPath><clipPath id="SvgjsClipPath100031868091-b3c4-4bd4-82e5-086cd740fd88"><path d=" M 0 -1.6929840622497142e-16 L 3.812261195946001 -1.6929840622497142e-16 L 3.812261195946001 2.4423711476868384 L 0 2.4423711476868384 Z"></path></clipPath><clipPath id="SvgjsClipPath1005"><path d=" M -1.630164339760209 0.4603252125380616 h 0.8127494549779948 v 0.8127494549779948 h -0.8127494549779948 Z"></path></clipPath><clipPath id="SvgjsClipPath1006"><path d=" M 4.629676080728216 0.4603252125380616 h 0.8127494549779948 v 0.8127494549779948 h -0.8127494549779948 Z"></path></clipPath></defs></svg>